<svg width="57" height="56" viewBox="0 0 57 56" fill="none" xmlns="http://www.w3.org/2000/svg">
<path d="M41.253 43H18.573C20.413 34.64 24.973 31.64 29.453 28.28C33.773 25.12 36.733 22.44 36.733 18.04C36.733 13.8 34.213 10.96 30.173 10.96C26.093 10.96 23.413 13.6 23.413 16.76C23.413 19.36 25.173 21.04 27.613 21.92L24.173 25.08C21.093 23.4 19.293 20.96 19.293 17.84C19.293 13.12 24.773 10.2 30.613 10.2C36.533 10.2 42.293 13.04 42.293 18.76C42.293 24.44 37.093 26.88 32.573 29.16C26.613 31.72 22.773 33.84 20.093 39.8L31.333 39.72C35.773 39.68 38.533 39.48 43.133 37.44L41.253 43Z" fill="currentColor"/>
<path fill-rule="evenodd" clip-rule="evenodd" d="M45.076 0H11.5879V55.9999H45.076V47.0045C43.8597 47.1367 42.6259 47.3479 41.3899 47.6425C35.1885 49.1208 30.4259 52.3428 28.3323 55.9952C26.2388 52.3427 21.4762 49.1207 15.2748 47.6425C14.0386 47.3478 12.8047 47.1366 11.5883 47.0044V8.43574C12.9305 8.30805 14.296 8.08415 15.6644 7.75795C21.5255 6.36081 26.1013 3.40605 28.3534 0.00242996C30.6054 3.40623 35.1813 6.36118 41.0427 7.75838C42.3965 8.0811 43.7476 8.3037 45.076 8.43207V0Z" fill="currentColor"/>
<path fill-rule="evenodd" clip-rule="evenodd" d="M56.3332 44.7438V11.2559L0.333009 11.2559L0.333008 44.7437H9.3257C9.19348 43.528 8.98235 42.2948 8.68782 41.0592C7.2094 34.8572 3.98682 30.0943 0.333855 28.0011C3.98753 25.9084 7.2109 21.1449 8.68956 14.9419C8.98418 13.706 9.19535 12.4724 9.32756 11.2563L47.8953 11.2563C48.023 12.5975 48.2468 13.962 48.5728 15.3293C49.9701 21.1911 52.9255 25.7673 56.3297 28.019C52.9252 30.2706 49.9696 34.8471 48.5722 40.7092C48.2494 42.0635 48.0267 43.4149 47.8984 44.7438H56.3332Z" fill="currentColor"/>
</svg>
