<svg width="57" height="56" viewBox="0 0 57 56" fill="none" xmlns="http://www.w3.org/2000/svg">
<path d="M30.307 43.8C23.067 43.8 18.227 40.16 17.507 32.96H18.147C19.067 39.48 23.587 42.16 28.627 42.16C34.267 42.16 36.827 38.32 36.827 33.76C36.827 29.24 33.827 25.6 27.187 27.08L27.067 26.32C32.867 23.24 34.587 19.88 34.587 15.92C34.587 13.24 33.347 10.96 30.107 10.96C26.067 10.96 24.227 14.56 23.107 19L19.067 17.16C20.747 13.8 24.467 10.2 30.267 10.2C35.427 10.2 39.467 12.68 39.467 16.96C39.467 21.48 35.787 23.88 31.747 25.48C37.467 25.04 42.067 27.56 42.067 33.76C42.067 39.72 37.027 43.8 30.307 43.8Z" fill="currentColor"/>
<path fill-rule="evenodd" clip-rule="evenodd" d="M45.41 0H11.9219V55.9999H45.41V47.0045C44.1937 47.1367 42.9599 47.3479 41.7239 47.6425C35.5225 49.1208 30.7599 52.3428 28.6663 55.9952C26.5727 52.3427 21.8102 49.1207 15.6088 47.6425C14.3726 47.3478 13.1387 47.1366 11.9223 47.0044V8.43574C13.2645 8.30805 14.63 8.08415 15.9984 7.75795C21.8595 6.36081 26.4353 3.40605 28.6874 0.00242996C30.9393 3.40623 35.5153 6.36118 41.3766 7.75838C42.7305 8.0811 44.0816 8.3037 45.41 8.43207V0Z" fill="currentColor"/>
<path fill-rule="evenodd" clip-rule="evenodd" d="M56.6672 44.7438V11.2559L0.666994 11.2559L0.666992 44.7437H9.65968C9.52747 43.528 9.31633 42.2948 9.02181 41.0592C7.54338 34.8572 4.3208 30.0943 0.667839 28.0011C4.32151 25.9084 7.54488 21.1449 9.02355 14.9419C9.31817 13.706 9.52934 12.4724 9.66155 11.2563L48.2293 11.2563C48.357 12.5975 48.5808 13.962 48.9068 15.3293C50.3041 21.1911 53.2595 25.7673 56.6637 28.019C53.2592 30.2706 50.3036 34.8471 48.9062 40.7092C48.5834 42.0635 48.3607 43.4149 48.2324 44.7438H56.6672Z" fill="currentColor"/>
</svg>
