<svg width="57" height="56" viewBox="0 0 57 56" fill="none" xmlns="http://www.w3.org/2000/svg">
<path d="M28.373 43.8C21.013 43.8 17.333 40.24 16.773 33.64H17.413C18.013 40.08 21.573 42.52 26.413 42.52C31.373 42.52 34.813 38.36 34.813 32.04C34.813 26.56 31.933 23.44 27.733 23.44C25.453 23.44 23.013 24.24 19.493 27.08L19.093 26.72L21.333 11H37.933L39.613 16.48C34.813 14.4 32.293 14.2 26.613 14.2H21.613L19.973 25.88C22.933 23.44 26.013 22.28 29.613 22.28C34.973 22.28 40.733 25.28 40.733 32.32C40.733 40.2 34.533 43.8 28.373 43.8Z" fill="currentColor"/>
<path fill-rule="evenodd" clip-rule="evenodd" d="M45.076 0H11.5879V55.9999H45.076V47.0045C43.8597 47.1367 42.6259 47.3479 41.3899 47.6425C35.1885 49.1208 30.4259 52.3428 28.3323 55.9952C26.2388 52.3427 21.4762 49.1207 15.2748 47.6425C14.0386 47.3478 12.8047 47.1366 11.5883 47.0044V8.43574C12.9305 8.30805 14.296 8.08415 15.6644 7.75795C21.5255 6.36081 26.1013 3.40605 28.3534 0.00242996C30.6054 3.40623 35.1813 6.36118 41.0427 7.75838C42.3965 8.0811 43.7476 8.3037 45.076 8.43207V0Z" fill="currentColor"/>
<path fill-rule="evenodd" clip-rule="evenodd" d="M56.3332 44.7438V11.2559L0.333009 11.2559L0.333008 44.7437H9.3257C9.19348 43.528 8.98235 42.2948 8.68782 41.0592C7.2094 34.8572 3.98682 30.0943 0.333855 28.0011C3.98753 25.9084 7.2109 21.1449 8.68956 14.9419C8.98418 13.706 9.19535 12.4724 9.32756 11.2563L47.8953 11.2563C48.023 12.5975 48.2468 13.962 48.5728 15.3293C49.9701 21.1911 52.9255 25.7673 56.3297 28.019C52.9252 30.2706 49.9696 34.8471 48.5722 40.7092C48.2494 42.0635 48.0267 43.4149 47.8984 44.7438H56.3332Z" fill="currentColor"/>
</svg>
