<svg width="57" height="56" viewBox="0 0 57 56" fill="none" xmlns="http://www.w3.org/2000/svg">
<path fill-rule="evenodd" clip-rule="evenodd" d="M45.41 0H11.9219V55.9999H45.41V47.0045C44.1937 47.1367 42.9599 47.3479 41.7239 47.6425C35.5225 49.1208 30.7599 52.3428 28.6663 55.9952C26.5727 52.3427 21.8102 49.1207 15.6088 47.6425C14.3726 47.3478 13.1387 47.1366 11.9223 47.0044V8.43574C13.2645 8.30805 14.63 8.08415 15.9984 7.75795C21.8595 6.36081 26.4353 3.40605 28.6874 0.00242996C30.9393 3.40623 35.5153 6.36118 41.3766 7.75838C42.7305 8.0811 44.0816 8.3037 45.41 8.43207V0Z" fill="currentColor"/>
<path fill-rule="evenodd" clip-rule="evenodd" d="M56.6672 44.7438V11.2559L0.666994 11.2559L0.666992 44.7437H9.65968C9.52747 43.528 9.31633 42.2948 9.02181 41.0592C7.54338 34.8572 4.3208 30.0943 0.667839 28.0011C4.32151 25.9084 7.54488 21.1449 9.02355 14.9419C9.31817 13.706 9.52934 12.4724 9.66155 11.2563L48.2293 11.2563C48.357 12.5975 48.5808 13.962 48.9068 15.3293C50.3041 21.1911 53.2595 25.7673 56.6637 28.019C53.2592 30.2706 50.3036 34.8471 48.9062 40.7092C48.5834 42.0635 48.3607 43.4149 48.2324 44.7438H56.6672Z" fill="currentColor"/>
<path d="M29.067 43.68C20.427 43.68 15.387 36.68 15.387 27.56C15.387 17.68 21.507 11.32 29.387 11.32C33.427 11.32 37.467 12.68 39.667 14.48C39.787 16.16 38.987 17.6 37.267 17.6C35.707 17.6 34.827 16.6 34.067 15.44C32.947 13.96 31.827 12.12 29.107 12.12C23.707 12.12 21.467 20.2 21.467 27.64V28.76C23.467 24.68 27.187 22.68 30.867 22.68C36.707 22.68 40.627 27.24 40.627 32.88C40.627 38.56 36.667 43.68 29.067 43.68ZM21.547 30.48C22.027 37.88 24.467 42.88 28.667 42.88C32.507 42.88 34.627 38.92 34.627 33.84C34.627 28.12 32.307 24.72 28.467 24.72C25.627 24.72 22.747 26.68 21.547 30.48Z" fill="currentColor"/>
</svg>
