<svg width="56" height="56" viewBox="0 0 56 56" fill="none" xmlns="http://www.w3.org/2000/svg">
<path fill-rule="evenodd" clip-rule="evenodd" d="M44.743 0H11.2549V55.9999H44.743V47.0045C43.5267 47.1367 42.2929 47.3479 41.0569 47.6425C34.8555 49.1208 30.0929 52.3428 27.9993 55.9952C25.9057 52.3427 21.1432 49.1207 14.9418 47.6425C13.7056 47.3478 12.4717 47.1366 11.2553 47.0044V8.43574C12.5975 8.30805 13.963 8.08415 15.3314 7.75795C21.1925 6.36081 25.7683 3.40605 28.0204 0.00242996C30.2724 3.40623 34.8483 6.36118 40.7096 7.75838C42.0635 8.0811 43.4146 8.3037 44.743 8.43207V0Z" fill="currentColor"/>
<path fill-rule="evenodd" clip-rule="evenodd" d="M56.0002 44.7438V11.2559L1.46381e-06 11.2559L0 44.7437H8.99269C8.86048 43.528 8.64934 42.2948 8.35482 41.0592C6.87639 34.8572 3.65381 30.0943 0.000847137 28.0011C3.65452 25.9084 6.87789 21.1449 8.35655 14.9419C8.65117 13.706 8.86234 12.4724 8.99455 11.2563L47.5623 11.2563C47.69 12.5975 47.9138 13.962 48.2398 15.3293C49.6371 21.1911 52.5925 25.7673 55.9967 28.019C52.5922 30.2706 49.6366 34.8471 48.2392 40.7092C47.9164 42.0635 47.6937 43.4149 47.5654 44.7438H56.0002Z" fill="currentColor"/>
</svg>
