<svg width="231" height="57" viewBox="0 0 231 57" fill="none" xmlns="http://www.w3.org/2000/svg">
    <path d="M76.3483 33.6616H79.4412V56.3383H76.3483V33.6616ZM71.3311 53.9087H84.4585V56.3383H71.3311V53.9087ZM71.3311 33.6616H84.4585V36.0913H71.3311V33.6616Z" fill="currentColor"/>
    <path d="M90.562 33.6616H94.2734L104.205 53.0016L103.38 53.2608V33.6616H106.439V56.3383H102.899L92.9676 36.9983L93.6205 36.7715V56.3383H90.562V33.6616Z" fill="currentColor"/>
    <path d="M119.14 56.6623C117.124 56.6623 115.44 56.3491 114.089 55.7228C112.76 55.0965 111.752 54.2218 111.064 53.0988C110.4 51.9542 110.056 50.6044 110.034 49.0494H113.126C113.218 50.7555 113.779 52.0082 114.81 52.8072C115.864 53.6063 117.353 54.0059 119.278 54.0059H119.484C121.065 54.0059 122.29 53.6495 123.161 52.9368C124.054 52.2241 124.501 51.3278 124.501 50.248C124.501 49.2977 124.203 48.5419 123.608 47.9803C123.012 47.4188 122.061 47.0085 120.755 46.7493L117.113 46.0042C115.097 45.5939 113.607 44.9028 112.645 43.9309C111.683 42.9375 111.202 41.5985 111.202 39.9139C111.202 38.7261 111.534 37.6354 112.199 36.642C112.886 35.6269 113.848 34.8278 115.085 34.2447C116.345 33.64 117.8 33.3376 119.45 33.3376C121.191 33.3376 122.691 33.64 123.951 34.2447C125.234 34.8278 126.208 35.6593 126.872 36.7392C127.56 37.7974 127.926 39.0392 127.972 40.4646H124.879C124.788 39.0608 124.261 37.9702 123.298 37.1927C122.336 36.3936 121.076 35.9941 119.518 35.9941H119.346C118.361 35.9941 117.479 36.1668 116.7 36.5124C115.944 36.8363 115.349 37.3007 114.913 37.9054C114.501 38.4885 114.295 39.1472 114.295 39.8815C114.295 40.8102 114.593 41.5337 115.188 42.052C115.784 42.5703 116.712 42.9591 117.972 43.2182L121.408 43.8985C123.447 44.2873 124.982 44.9892 126.013 46.0042C127.067 46.9977 127.594 48.3475 127.594 50.0536C127.594 51.3494 127.25 52.4941 126.563 53.4875C125.899 54.481 124.925 55.2585 123.642 55.82C122.382 56.3815 120.881 56.6623 119.14 56.6623Z" fill="currentColor"/>
    <path d="M138.165 33.6616H141.258V56.3383H138.165V33.6616ZM133.148 53.9087H146.275V56.3383H133.148V53.9087ZM133.148 33.6616H146.275V36.0913H133.148V33.6616Z" fill="currentColor"/>
    <path d="M160.558 56.6623C158.679 56.6623 157.064 56.1763 155.712 55.2045C154.36 54.2326 153.329 52.872 152.619 51.1227C151.909 49.3733 151.554 47.3324 151.554 45C151.554 42.6675 151.898 40.6374 152.585 38.9096C153.272 37.1603 154.315 35.7997 155.712 34.8278C157.11 33.8344 158.851 33.3376 160.936 33.3376C163.456 33.3376 165.369 34.0503 166.675 35.4757C168.003 36.9011 168.725 38.7801 168.84 41.1125H165.747C165.632 39.4928 165.162 38.2401 164.338 37.3547C163.536 36.4476 162.425 35.9941 161.004 35.9941H160.832C159.504 35.9941 158.37 36.3504 157.43 37.0631C156.514 37.7758 155.815 38.8125 155.334 40.1731C154.876 41.5121 154.647 43.121 154.647 45C154.647 47.7644 155.162 49.9564 156.193 51.5762C157.247 53.196 158.816 54.0059 160.901 54.0059H161.073C162.035 54.0059 162.906 53.8115 163.685 53.4227C164.487 53.0124 165.117 52.4185 165.575 51.641C166.033 50.8419 166.262 49.9025 166.262 48.8226V46.2634L167.568 47.4944H161.073V44.838H166.571C167.373 44.838 167.98 45.0432 168.393 45.4535C168.805 45.8422 169.011 46.4038 169.011 47.1381V56.3383H166.262V52.6453L166.64 53.2608C166.296 53.9303 165.85 54.5242 165.3 55.0425C164.773 55.5392 164.109 55.9388 163.307 56.2411C162.528 56.5219 161.611 56.6623 160.558 56.6623Z" fill="currentColor"/>
    <path d="M173.053 33.6616H176.146V43.6718H185.699V33.6616H188.792V56.3383H185.699V46.3282H176.146V56.3383H173.053V33.6616Z" fill="currentColor"/>
    <path d="M199.982 36.318H193.074V33.6616H209.982V36.318H203.075V56.3383H199.982V36.318Z" fill="currentColor"/>
    <path d="M222.168 56.6623C220.152 56.6623 218.468 56.3491 217.116 55.7228C215.788 55.0965 214.78 54.2218 214.092 53.0988C213.428 51.9542 213.084 50.6044 213.061 49.0494H216.154C216.246 50.7555 216.807 52.0082 217.838 52.8072C218.892 53.6063 220.381 54.0059 222.305 54.0059H222.512C224.092 54.0059 225.318 53.6495 226.189 52.9368C227.082 52.2241 227.529 51.3278 227.529 50.248C227.529 49.2977 227.231 48.5419 226.635 47.9803C226.04 47.4188 225.089 47.0085 223.783 46.7493L220.14 46.0042C218.124 45.5939 216.635 44.9028 215.673 43.9309C214.711 42.9375 214.23 41.5985 214.23 39.9139C214.23 38.7261 214.562 37.6354 215.226 36.642C215.914 35.6269 216.876 34.8278 218.113 34.2447C219.373 33.64 220.828 33.3376 222.477 33.3376C224.218 33.3376 225.719 33.64 226.979 34.2447C228.262 34.8278 229.236 35.6593 229.9 36.7392C230.587 37.7974 230.954 39.0392 231 40.4646H227.907C227.815 39.0608 227.288 37.9702 226.326 37.1927C225.364 36.3936 224.104 35.9941 222.546 35.9941H222.374C221.389 35.9941 220.507 36.1668 219.728 36.5124C218.972 36.8363 218.376 37.3007 217.941 37.9054C217.529 38.4885 217.323 39.1472 217.323 39.8815C217.323 40.8102 217.62 41.5337 218.216 42.052C218.812 42.5703 219.74 42.9591 221 43.2182L224.436 43.8985C226.475 44.2873 228.01 44.9892 229.041 46.0042C230.095 46.9977 230.622 48.3475 230.622 50.0536C230.622 51.3494 230.278 52.4941 229.591 53.4875C228.926 54.481 227.953 55.2585 226.67 55.82C225.41 56.3815 223.909 56.6623 222.168 56.6623Z" fill="currentColor"/>
    <path d="M69.708 11.5657C69.708 5.00234 73.6588 0.00018692 80.3177 0.00018692C86.9767 0.00018692 90.8956 5.00234 90.8956 11.5657C90.8956 18.1609 86.9767 23.163 80.3177 23.163C73.6588 23.163 69.708 18.1609 69.708 11.5657ZM72.6392 11.5657C72.6392 16.8546 75.1562 20.646 80.3177 20.646C85.4792 20.646 87.9962 16.8546 87.9962 11.5657C87.9962 6.30863 85.4792 2.51719 80.3177 2.51719C75.1562 2.51719 72.6392 6.30863 72.6392 11.5657Z" fill="currentColor"/>
    <path d="M95.0455 22.8125V0.350655H103.361C108.618 0.350655 112.123 1.52951 112.123 6.49979C112.123 9.87704 110.594 11.5657 108.204 12.171H109.861C111.645 12.171 112.155 13.2224 112.155 14.5287V22.8125H109.287V13.9234H97.9448V22.8125H95.0455ZM97.9448 11.4382H103.361C106.993 11.4382 109.256 11.024 109.256 7.13701C109.256 3.15441 106.993 2.8358 103.361 2.8358H97.9448V11.4382Z" fill="currentColor"/>
    <path d="M115.822 0.350655H128.757V2.8358H123.723V20.3274H128.757V22.8125H115.822V20.3274H120.856V2.8358H115.822V0.350655Z" fill="currentColor"/>
    <path d="M133.036 22.8125V0.350655H148.648V2.8358H135.935V10.355H147.055V12.7764H135.935V20.3274H148.648V22.8125H133.036Z" fill="currentColor"/>
    <path d="M154.365 22.8125C153.091 22.8125 152.358 22.1116 152.358 20.8053V0.350655H155.257V20.3274H166.504V22.8125H154.365Z" fill="currentColor"/>
    <path fill-rule="evenodd" clip-rule="evenodd" d="M44.743 0H11.2549V55.9999H44.743V47.0045C43.5267 47.1367 42.2929 47.3479 41.0569 47.6425C34.8555 49.1208 30.0929 52.3428 27.9993 55.9952C25.9057 52.3427 21.1432 49.1207 14.9418 47.6425C13.7056 47.3478 12.4717 47.1366 11.2553 47.0044V8.43574C12.5975 8.30805 13.963 8.08415 15.3314 7.75795C21.1925 6.36081 25.7683 3.40605 28.0204 0.00242996C30.2724 3.40623 34.8483 6.36118 40.7096 7.75838C42.0635 8.0811 43.4146 8.3037 44.743 8.43207V0Z" fill="currentColor"/>
    <path fill-rule="evenodd" clip-rule="evenodd" d="M56.0002 44.7439V11.256L1.46381e-06 11.256L0 44.7438H8.99269C8.86048 43.528 8.64934 42.2948 8.35482 41.0593C6.87639 34.8573 3.65381 30.0944 0.000847137 28.0012C3.65452 25.9085 6.87789 21.145 8.35655 14.942C8.65117 13.7061 8.86234 12.4725 8.99455 11.2564L47.5623 11.2564C47.69 12.5976 47.9138 13.9621 48.2398 15.3294C49.6371 21.1912 52.5925 25.7674 55.9967 28.0191C52.5922 30.2707 49.6366 34.8472 48.2392 40.7093C47.9164 42.0636 47.6937 43.415 47.5654 44.7439H56.0002Z" fill="currentColor"/>
</svg>
