<svg width="1099" height="271" viewBox="0 0 1099 271" fill="none" xmlns="http://www.w3.org/2000/svg">
<path d="M363.233 160.981H377.948V268.867H363.233V160.981ZM339.363 257.308H401.818V268.867H339.363V257.308ZM339.363 160.981H401.818V172.54H339.363V160.981Z" fill="white"/>
<path d="M430.856 160.981H448.513L495.763 252.992L491.839 254.225V160.981H506.39V268.867H489.55L442.301 176.855L445.407 175.777V268.867H430.856V160.981Z" fill="white"/>
<path d="M566.819 270.408C557.228 270.408 549.216 268.918 542.786 265.939C536.464 262.959 531.668 258.798 528.398 253.455C525.237 248.009 523.602 241.587 523.493 234.189H538.208C538.644 242.306 541.314 248.266 546.219 252.068C551.233 255.869 558.318 257.77 567.473 257.77H568.454C575.975 257.77 581.806 256.075 585.948 252.684C590.199 249.293 592.324 245.029 592.324 239.892C592.324 235.371 590.907 231.775 588.074 229.103C585.24 226.432 580.716 224.479 574.503 223.247L557.173 219.702C547.581 217.749 540.497 214.461 535.919 209.838C531.341 205.111 529.052 198.741 529.052 190.726C529.052 185.075 530.633 179.886 533.793 175.16C537.063 170.331 541.641 166.529 547.527 163.755C553.522 160.878 560.443 159.439 568.291 159.439C576.574 159.439 583.714 160.878 589.708 163.755C595.812 166.529 600.445 170.485 603.605 175.622C606.875 180.657 608.619 186.565 608.837 193.347H594.123C593.687 186.668 591.18 181.479 586.602 177.78C582.024 173.978 576.029 172.078 568.618 172.078H567.8C563.113 172.078 558.917 172.9 555.211 174.544C551.614 176.085 548.78 178.294 546.71 181.171C544.748 183.945 543.767 187.079 543.767 190.572C543.767 194.991 545.184 198.433 548.017 200.899C550.851 203.365 555.266 205.214 561.26 206.447L577.61 209.684C587.311 211.533 594.613 214.872 599.518 219.702C604.532 224.428 607.039 230.85 607.039 238.967C607.039 245.132 605.404 250.578 602.134 255.304C598.973 260.031 594.341 263.73 588.237 266.401C582.242 269.072 575.103 270.408 566.819 270.408Z" fill="white"/>
<path d="M657.331 160.981H672.046V268.867H657.331V160.981ZM633.461 257.308H695.916V268.867H633.461V257.308ZM633.461 160.981H695.916V172.54H633.461V160.981Z" fill="white"/>
<path d="M763.865 270.408C754.928 270.408 747.243 268.096 740.813 263.473C734.382 258.849 729.477 252.376 726.098 244.053C722.719 235.73 721.03 226.021 721.03 214.924C721.03 203.827 722.665 194.169 725.935 185.949C729.205 177.626 734.164 171.153 740.813 166.529C747.461 161.803 755.745 159.439 765.664 159.439C777.653 159.439 786.755 162.83 792.967 169.612C799.289 176.393 802.722 185.332 803.267 196.429H788.553C788.008 188.723 785.774 182.763 781.85 178.551C778.035 174.235 772.749 172.078 765.991 172.078H765.173C758.852 172.078 753.456 173.773 748.987 177.164C744.628 180.554 741.303 185.486 739.014 191.959C736.834 198.33 735.744 205.985 735.744 214.924C735.744 228.076 738.197 238.505 743.102 246.211C748.115 253.917 755.582 257.77 765.5 257.77H766.318C770.896 257.77 775.037 256.845 778.743 254.996C782.558 253.044 785.556 250.218 787.736 246.519C789.915 242.717 791.005 238.248 791.005 233.11V220.935L797.218 226.791H766.318V214.153H792.477C796.292 214.153 799.18 215.129 801.142 217.082C803.104 218.931 804.085 221.603 804.085 225.096V268.867H791.005V251.297L792.804 254.225C791.169 257.41 789.043 260.236 786.428 262.702C783.921 265.065 780.76 266.966 776.945 268.405C773.239 269.74 768.879 270.408 763.865 270.408Z" fill="white"/>
<path d="M823.313 160.981H838.028V208.605H883.479V160.981H898.194V268.867H883.479V221.243H838.028V268.867H823.313V160.981Z" fill="white"/>
<path d="M951.429 173.619H918.567V160.981H999.006V173.619H966.143V268.867H951.429V173.619Z" fill="white"/>
<path d="M1056.98 270.408C1047.39 270.408 1039.38 268.918 1032.95 265.939C1026.63 262.959 1021.83 258.798 1018.56 253.455C1015.4 248.009 1013.77 241.587 1013.66 234.189H1028.37C1028.81 242.306 1031.48 248.266 1036.38 252.068C1041.4 255.869 1048.48 257.77 1057.64 257.77H1058.62C1066.14 257.77 1071.97 256.075 1076.11 252.684C1080.36 249.293 1082.49 245.029 1082.49 239.892C1082.49 235.371 1081.07 231.775 1078.24 229.103C1075.4 226.432 1070.88 224.479 1064.67 223.247L1047.34 219.702C1037.74 217.749 1030.66 214.461 1026.08 209.838C1021.5 205.111 1019.22 198.741 1019.22 190.726C1019.22 185.075 1020.8 179.886 1023.96 175.16C1027.23 170.331 1031.8 166.529 1037.69 163.755C1043.68 160.878 1050.61 159.439 1058.45 159.439C1066.74 159.439 1073.88 160.878 1079.87 163.755C1085.98 166.529 1090.61 170.485 1093.77 175.622C1097.04 180.657 1098.78 186.565 1099 193.347H1084.29C1083.85 186.668 1081.34 181.479 1076.76 177.78C1072.19 173.978 1066.19 172.078 1058.78 172.078H1057.96C1053.28 172.078 1049.08 172.9 1045.37 174.544C1041.78 176.085 1038.94 178.294 1036.87 181.171C1034.91 183.945 1033.93 187.079 1033.93 190.572C1033.93 194.991 1035.35 198.433 1038.18 200.899C1041.01 203.365 1045.43 205.214 1051.42 206.447L1067.77 209.684C1077.47 211.533 1084.78 214.872 1089.68 219.702C1094.69 224.428 1097.2 230.85 1097.2 238.967C1097.2 245.132 1095.57 250.578 1092.3 255.304C1089.14 260.031 1084.5 263.73 1078.4 266.401C1072.41 269.072 1065.27 270.408 1056.98 270.408Z" fill="white"/>
<path d="M331.641 55.8552C331.641 24.6297 350.437 0.831543 382.117 0.831543C413.798 0.831543 432.442 24.6297 432.442 55.8552C432.442 87.2324 413.798 111.03 382.117 111.03C350.437 111.03 331.641 87.2324 331.641 55.8552ZM345.586 55.8552C345.586 81.0176 357.561 99.0556 382.117 99.0556C406.673 99.0556 418.648 81.0176 418.648 55.8552C418.648 30.8445 406.673 12.8064 382.117 12.8064C357.561 12.8064 345.586 30.8445 345.586 55.8552Z" fill="white"/>
<path d="M452.186 109.363V2.49892H491.748C516.759 2.49892 533.433 8.1074 533.433 31.7539C533.433 47.8215 526.157 55.8552 514.789 58.7352H522.671C531.16 58.7352 533.585 63.7374 533.585 69.9522V109.363H519.943V67.0722H465.98V109.363H452.186ZM465.98 55.2489H491.748C509.029 55.2489 519.791 53.2784 519.791 34.7855C519.791 15.838 509.029 14.3222 491.748 14.3222H465.98V55.2489Z" fill="white"/>
<path d="M551.03 2.49892H612.572V14.3222H588.622V97.5398H612.572V109.363H551.03V97.5398H574.98V14.3222H551.03V2.49892Z" fill="white"/>
<path d="M632.929 109.363V2.49892H707.204V14.3222H646.723V50.0952H699.625V61.6153H646.723V97.5398H707.204V109.363H632.929Z" fill="white"/>
<path d="M734.404 109.363C728.341 109.363 724.854 106.028 724.854 99.8135V2.49892H738.648V97.5398H792.157V109.363H734.404Z" fill="white"/>
<path fill-rule="evenodd" clip-rule="evenodd" d="M212.867 0.831543H53.5449V267.255H212.867V224.461C207.081 225.09 201.211 226.094 195.33 227.496C165.827 234.529 143.168 249.858 133.208 267.235C123.248 249.858 100.589 234.529 71.0858 227.496C65.2044 226.094 59.3341 225.089 53.5468 224.46V40.9669C59.9325 40.3594 66.4292 39.2941 72.9396 37.7422C100.824 31.0953 122.594 17.0378 133.308 0.844786C144.022 17.0387 165.793 31.0971 193.678 37.7444C200.12 39.2798 206.547 40.3388 212.867 40.9495V0.831543Z" fill="white"/>
<path fill-rule="evenodd" clip-rule="evenodd" d="M266.426 213.704V54.3823L6.9642e-06 54.3823L0 213.704H42.7836C42.1546 207.919 41.15 202.051 39.7487 196.173C32.7153 166.667 17.3846 144.008 0.00621675 134.049C17.388 124.092 32.7225 101.43 39.7571 71.9202C41.1588 66.0399 42.1635 60.1707 42.7925 54.3845L226.281 54.3845C226.889 60.7653 227.954 67.2569 229.505 73.7622C236.153 101.65 250.213 123.422 266.409 134.135C250.212 144.847 236.15 166.62 229.502 194.509C227.966 200.952 226.907 207.382 226.296 213.704H266.426Z" fill="white"/>
</svg>
